<?xml version="1.0" encoding="UTF-8" standalone="no"?>
<svg
   xmlns:dc="http://purl.org/dc/elements/1.1/"
   xmlns:cc="http://creativecommons.org/ns#"
   xmlns:rdf="http://www.w3.org/1999/02/22-rdf-syntax-ns#"
   xmlns:svg="http://www.w3.org/2000/svg"
   xmlns="http://www.w3.org/2000/svg"
   viewBox="0 0 853.33331 853.33331"
   height="853.33331"
   width="853.33331"
   xml:space="preserve"
   id="svg2"
   version="1.1"><metadata
     id="metadata8"><rdf:RDF><cc:Work
         rdf:about=""><dc:format>image/svg+xml</dc:format><dc:type
           rdf:resource="http://purl.org/dc/dcmitype/StillImage" /></cc:Work></rdf:RDF></metadata><defs
     id="defs6"><clipPath
       id="clipPath18"
       clipPathUnits="userSpaceOnUse"><path
         id="path16"
         d="M 0,640 H 640 V 0 H 0 Z" /></clipPath></defs><g
     transform="matrix(1.3333333,0,0,-1.3333333,0,853.33333)"
     id="g10"><g
       id="g12"><g
         clip-path="url(#clipPath18)"
         id="g14"><g
           transform="translate(294.8994,78.2998)"
           id="g20"><path
             id="path22"
             style="fill:#000000;fill-opacity:1;fill-rule:nonzero;stroke:none"
             d="m 0,0 c 3,-1.7 3.101,-2 3.101,-8.8 0,-9.599 -1.401,-14 -5,-16.2 -3.201,-1.8 -3.901,-3.3 -1.701,-3.3 0.8,0 2.201,-0.9 3.201,-2.099 C 1.4,-32.3 1.4,-32.6 -0.199,-35.6 -1.1,-37.399 -2.1,-40 -2.5,-41.6 c -0.3,-1.5 -1.8,-3.6 -3.1,-4.7 -4.9,-3.9 -21.4,-0.599 -24.2,4.8 -0.5,1 -1.099,3.5 -1.5,5.7 -0.7,4.8 2.7,11.8 6,12.3 1.8,0.3 1.901,0.9 1.601,7.2 l -0.401,6.8 4.8,3.601 C -16.6,-4 -12.8,-1.8 -10.899,-1.2 -9,-0.6 -7,0.3 -6.399,0.8 -5,2.101 -3.399,1.9 0,0 m 87.2,184.7 c 2.7,-1.5 2.401,-3.9 -0.599,-5 -5.201,-2 -7,-2 -9.5,-0.099 -2.401,1.899 -2.401,2 -0.601,4 2.101,2.299 7.4,2.799 10.7,1.099 m 3,126 c 2.2,-1.2 4.901,-6 4.901,-8.8 0,-1.1 2.099,-6.1 4.599,-11.1 4.2,-8.6 4.901,-12.1 2.5,-12.1 -1.099,0 -6.099,5.1 -6.099,6.1 0,0.4 -2,4.2 -4.401,8.5 -4.099,7.4 -5.099,10.7 -4.8,16.2 0.201,2.5 0.5,2.6 3.3,1.2 M -62.5,428 c 1,-6.8 1,-13.1 0,-14.5 -0.6,-0.7 -1.6,-4.2 -2.3,-7.8 -1.399,-7 -2.599,-10 -4.2,-10 -1.8,0 -2.199,3.1 -1.1,8.3 0.6,2.9 1.5,9.6 2.1,15 0.9,9.1 2.101,12.7 4.101,12.7 0.5,0 1.099,-1.7 1.399,-3.7 M 3.101,561.1 c -13.101,-1.2 -31.901,-3.8 -42.5,-6 -86.3,-18 -160.8,-69.9 -207.101,-144.5 -8,-13 -17.399,-30.5 -17.399,-32.6 0,-0.8 1.2,-1.3 3,-1.3 2.2,0 3,0.5 3,1.8 0,1 0.5,2.3 1.2,3 1.899,1.9 12.099,1.4 17.8,-0.8 6,-2.4 18.599,-2.6 42,-1 8,0.6 37.799,1.4 66.299,1.9 l 51.8,0.8 6.2,6.1 c 6.8,6.8 9.201,7.5 14.6,4.5 3.5,-2.1 4.5,-1.5 3.301,1.8 -1.301,3.2 0.199,6.7 3.399,8.1 2.3,1.1 2.8,1 4,-0.7 2.901,-4 0.7,-11.5 -3.399,-11.5 -1.601,0 -1.5,-2.5 0.3,-6.1 1.299,-2.4 1.399,-3.7 0.399,-7.2 -0.6,-2.3 -1,-4.2 -0.8,-4.3 0.2,0 -0.2,-0.9 -1,-1.8 -0.8,-0.9 -2.099,-1.4 -2.8,-1.1 -0.799,0.3 -4.7,-0.2 -8.599,-1 -9.7,-2 -41.101,-2 -52.601,0 -8.899,1.6 -19.399,1.5 -66.599,-0.5 -23.101,-1 -32.5,-2.2 -32.5,-4.2 0,-1.1 8.399,-0.6 17.899,1.2 4.601,0.9 7.101,0.9 8.801,0.1 3.399,-1.5 2.8,-2.9 -1.401,-3.6 -2.099,-0.3 -7.2,-2.4 -11.4,-4.5 -6.8,-3.5 -8.199,-3.9 -13.5,-3.6 -3.199,0.2 -7.1,0.7 -8.5,1.1 -2.5,0.6 -2.699,0.4 -3.3,-3.7 -0.3,-2.4 -0.899,-5.9 -1.2,-7.8 -0.5,-3.3 0.101,-4.4 6.801,-12.9 4,-5.2 9.8,-12.6 12.8,-16.6 20.7,-27.1 67.899,-76.599 83,-87.2 4.7,-3.2 9.299,-6.2 10.2,-6.6 1,-0.299 4.3,0.3 7.5,1.4 4.599,1.6 7.199,1.9 12.599,1.5 12.3,-1.1 4.701,3.801 -8.299,5.301 -5.3,0.599 -5.5,0.699 -5.8,3.699 -0.301,2.7 0.199,3.301 3.399,4.9 5.5,2.6 10.101,1.3 25.901,-7.3 7.799,-4.2 17.799,-14.6 21.5,-22.4 1.799,-3.8 3.399,-6.8 3.5,-6.8 0.099,0 0,2 -0.3,4.5 -0.601,5.8 1,9.5 5.899,13.401 5.5,4.399 18.901,6.599 18.901,3.099 0,-0.4 -3,-3.9 -6.701,-7.7 -6.299,-6.399 -8.299,-9.1 -9.7,-13.5 -0.399,-1.2 -1.599,-1.8 -3.599,-1.8 -3,0 -3.101,-0.099 -2.5,-3.2 1.2,-5.899 1.599,-6.8 3.799,-8 1.201,-0.6 3.401,-1.3 5,-1.399 1.5,-0.201 3.5,-1.101 4.3,-1.901 1.5,-1.4 4.401,-2.099 4.401,-0.9 0,1 -6.5,6.4 -7.701,6.4 -1.5,0 -1.599,0.901 -0.299,3 0.599,1 1,1.1 1,0.3 0,-0.7 0.5,-1.3 1,-1.3 0.599,0 1,1.7 1,3.7 0,3.701 2.399,11.6 4.299,14.1 2.6,3.3 11.5,8.2 15.1,8.2 4,0 4.101,-0.2 2.4,-3 -1.599,-2.5 -0.5,-3.5 2.201,-2 2.399,1.3 7,0.6 7,-1 0,-0.599 2.399,-1 5.299,-1 4,0.1 4.8,0.3 3.5,1.1 -3.799,2.2 -1.5,15.4 2.8,16.5 1.3,0.301 2.401,1 2.401,1.5 0,0.5 -1,0.7 -2.3,0.4 -1.901,-0.5 -2.7,0.1 -4.5,3.3 -3,5.4 -2.801,7.7 1.199,10.8 l 3.4,2.7 -2.299,2.101 C -0.699,250.3 -2,252.7 -2.3,254.5 c -0.5,2.8 -0.099,3.9 2.3,6.3 l 2.9,2.9 -2.799,2.9 c -3.201,3.2 -3.201,6 0.2,9.8 3.399,3.7 6.699,4.5 15.199,3.4 4.2,-0.5 8.301,-1.5 9.101,-2.1 2.299,-1.9 1.799,-7.9 -0.901,-11.5 -2.399,-3.099 -2.399,-3.099 -0.5,-5.599 2.601,-3.301 2.401,-6.101 -0.599,-8.901 l -2.5,-2.4 3.099,-2.8 c 2.901,-2.7 3.101,-3.3 2.7,-7.899 C 25.601,235.4 24.601,232.8 23.2,231.3 l -2.099,-2.3 2,-2.5 c 1.099,-1.5 2,-3.399 2,-4.5 0,-3.3 -3.601,-11.3 -5.8,-12.899 -2.101,-1.401 -2.101,-1.701 -0.7,-4.5 1.299,-2.5 1.899,-2.801 3.5,-1.901 1,0.6 2.5,2.2 3.2,3.8 1.199,2.4 1.899,2.7 6.099,2.601 5.8,0 8.901,-2.201 13.901,-9.401 5,-7.599 5.699,-7.599 7.199,-0.7 0.5,2.2 1.2,2.7 3.5,2.7 7.7,0 14.7,-6.599 15.801,-15 1,-7.2 -4.601,-10.7 -8.5,-5.3 l -2,2.8 L 60,181.4 c -2.1,-4.6 -0.399,-5.2 13.4,-5.2 12.401,0 18.901,1.2 25.8,4.6 3.5,1.7 12.5,11.9 16.7,19 2.701,4.4 8.3,8.9 11.201,8.9 2.599,0 15.799,-7.099 16.5,-8.9 0.299,-0.699 -0.301,-2.8 -1.301,-4.5 -1.5,-2.6 -3.3,-3.6 -11,-6.199 -5.1,-1.701 -9.999,-3.901 -10.999,-4.801 -1.7,-1.6 -3.7,-3.1 -13.401,-9.699 -2.7,-1.801 -4.799,-3.5 -4.799,-3.801 0,-1 4,-3.199 4.899,-2.699 0.5,0.299 1.101,1.899 1.4,3.5 0.8,3.699 10.1,9.199 13.5,8 1.6,-0.601 2.5,-0.301 3.5,1.099 2.4,3.5 6.6,6.1 11.9,7.5 4.6,1.1 5.801,1.1 9.301,-0.2 8,-3 8.799,-2.899 16.599,2.601 4.1,2.799 11.7,8.5 16.901,12.599 5.199,4.1 10.799,8.3 12.399,9.3 1.5,0.9 4.2,2.7 6,3.9 1.7,1.3 5.5,3.9 8.3,5.8 5.4,3.6 27,24.901 37.7,36.901 4,4.699 6.101,7.999 6.8,10.899 0.5,2.3 2.2,5.9 3.9,7.9 l 2.901,3.7 -2.5,1.7 c -1.401,0.9 -4.201,4.6 -6.201,8.3 -3.299,6 -9.5,13.1 -11.5,13.1 -0.4,0 -2,1.1 -3.5,2.5 -1.6,1.4 -5,4 -7.7,5.8 -9.4,6.1 -6.5,8.2 5.7,4.3 4.5,-1.4 10.3,-3 13,-3.6 2.6,-0.6 5.6,-1.9 6.701,-3 2.199,-2.2 6,-2.7 6,-0.7 0,2.1 -2.201,3.7 -5.201,3.7 -1.6,0 -3.1,0.7 -3.7,1.8 -1.599,3 -34.7,21.6 -45.599,25.6 -5.301,2 -11.5,4.6 -17.901,7.7 -2.2,1 -4.099,1.8 -4.2,1.6 -0.399,-0.4 9.7,-10.7 15.7,-16 l 5.401,-4.9 -3.401,0.6 c -1.9,0.3 -4.2,1.3 -5.099,2.1 -0.901,0.8 -2.201,1.5 -2.901,1.5 -0.599,0 -4.5,1.8 -8.5,4 -8.4,4.6 -14.4,6.6 -23.9,8 -7.1,1.1 -20,5.2 -22.4,7.2 -1.6,1.3 -6.5,10.1 -7.299,13.3 -0.5,1.6 -0.901,1.3 -3,-2 -1.3,-2.2 -4.101,-5.9 -6.201,-8.2 -4.2,-4.7 -4.599,-7.1 -2.2,-12.8 2,-5 1.2,-7.9 -3.2,-10.9 -2.1,-1.4 -3.1,-2.7 -2.5,-3.1 1.4,-0.8 1.4,-8.2 0.101,-9 -2.101,-1.3 -4.101,1.7 -3.8,5.4 0.3,3.3 0.099,3.6 -2.2,3.6 -2.401,0 -2.5,-0.2 -2.201,-5.3 0.201,-3.1 -0.2,-6 -0.9,-6.8 -2.899,-3.5 -8.899,0.1 -8.899,5.4 0,2.4 -2.101,3.8 -4.401,2.9 -1.2,-0.5 -1.2,-1.3 -0.399,-4 1.199,-4 0.399,-8.7 -1.601,-8.7 -0.7,0 -2.5,0.9 -4,2.1 -2,1.6 -2.599,2.9 -2.599,6 0,2.8 -0.401,3.9 -1.5,3.9 -2.3,0 -2.8,-2.4 -1.5,-6.4 2.2,-6.7 -2,-9.8 -7.401,-5.5 -2.3,1.8 -2.599,2.6 -2,5.6 l 0.7,3.5 -3.799,-0.5 c -5,-0.7 -6.3,-2.2 -3.601,-3.9 1.101,-0.7 2.101,-2 2.101,-2.9 0,-1.7 -3,-4.9 -4.701,-4.9 -1.5,0 -4,3.2 -4.7,6.3 -0.3,1.5 -1.2,2.7 -2,2.7 -2.099,0 -4.599,3.5 -5.3,7.2 -0.5,3.5 -0.5,3.5 -4.2,2.6 l -3.599,-0.9 -0.3,-10.6 c -0.2,-9.3 0,-11 1.899,-14.2 3.901,-6.5 6.2,-10.6 7.8,-13.7 1.801,-3.5 5.101,-7.7 6.801,-8.7 0.699,-0.4 2.099,-0.2 3.199,0.5 2.601,1.6 3.9,0.3 2.301,-2.2 -1.601,-2.6 -1.5,-3.5 0.399,-5.4 2.101,-2.1 3.101,-2 3.7,0.4 0.701,2.6 3.3,3.6 5.3,1.9 1.101,-0.9 1.3,-2.2 0.901,-5.1 -0.601,-3.1 -0.401,-3.8 1,-3.8 0.899,0 1.5,0.6 1.399,1.3 -0.399,2.9 0.301,3.7 3,3.7 3,0 5.301,-1.6 7.101,-5.1 1.599,-2.9 5.2,-2.4 7.2,1.1 1.399,2.4 2.399,3 5.3,3 3.099,0 3.5,-0.3 3.5,-2.6 0,-2.6 0.099,-2.7 4.899,-2.1 5.9,0.7 8.2,-0.7 10,-6.1 2.601,-7.9 -3.5,-11.799 -19.699,-12.6 -17,-0.9 -19,-0.3 -26.901,7.1 -3.7,3.5 -10.4,8.5 -14.7,11.1 -16.2,9.5 -22.5,18.6 -27.3,39.1 -3.299,13.7 -6.099,18.4 -12.799,21 -2.701,1.1 -9.3,2.5 -14.5,3.1 -5.201,0.5 -11.401,1.2 -13.8,1.5 -11.101,1.2 -20.901,10.8 -27,26.2 -2.7,6.9 -3.2,9.5 -3.2,16.4 0,9.2 2.399,23.4 4.599,27.7 0.7,1.5 1.401,3.8 1.401,5.2 0,1.4 0.7,3.6 1.599,4.8 2.601,3.8 0.8,3.6 -2,-0.1 -3.3,-4.3 -8.3,-6.7 -9.7,-4.6 -0.6,0.8 -0.8,3.3 -0.5,5.7 0.5,3.5 0.2,4.4 -1.399,5.4 -1.201,0.8 -2,2.4 -2,4.1 0,2.3 -0.5,2.9 -3,3.4 -4.201,0.8 -4.601,2 -1.601,5.2 3.801,4 3.4,5.4 -1.399,4.6 -3.601,-0.6 -4,-0.5 -4.601,1.9 -1.199,4.9 0.4,7.4 8.101,13.1 6,4.4 8.099,5.5 11.299,5.5 3.1,0 4.1,0.5 5.201,2.5 1.599,3 4,3.7 21.7,6.5 10.699,1.7 13.699,1.9 15.5,0.9 1.3,-0.7 4.8,-1.3 7.8,-1.4 3,-0.1 6.599,-0.5 8,-0.9 2,-0.6 3.399,-0.1 6.399,2.3 5,4 11.9,5.4 24.9,5 10,-0.4 11,-0.6 12.8,-2.7 2.3,-2.9 4.5,-2.4 8.601,2.1 3.399,3.6 6,5.8 9.599,8.2 3.1,2 7.701,1.1 7.701,-1.5 0,-1.3 1,-1.9 3.799,-2.2 2,-0.3 4.401,-0.7 5.201,-0.9 0.899,-0.2 1.599,0.4 1.799,1.8 0.3,1.8 -0.4,2.4 -3.9,3.3 -5.399,1.5 -3.8,2.6 4.7,3.5 7.2,0.8 10.101,-0.3 10.601,-4.2 0.199,-2.1 1.5,-3.3 6.099,-5.6 6.401,-3.3 8.3,-6.1 6.701,-10.1 -1.101,-3 1.099,-5.3 6.099,-6.2 6.5,-1.3 9.7,-6.6 6.7,-11.3 -0.9,-1.5 -0.6,-2.4 1.6,-5.3 2.2,-2.9 2.5,-4 1.7,-6.1 -0.5,-1.4 -1.5,-2.8 -2.099,-3.2 -0.801,-0.5 -0.601,-1.4 0.5,-3.1 1.399,-2.2 1.399,-2.6 -0.5,-5.2 -1.801,-2.4 -1.901,-3.2 -0.901,-6.1 0.901,-2.5 0.901,-5.3 0,-11.5 -1.599,-11.4 -1.5,-12.1 1.7,-13.6 1.5,-0.7 3.1,-1.2 3.701,-1.1 4.399,1.1 6.699,0 16.5,-8 13.899,-11.4 16.899,-13.5 28.5,-20.4 5.5,-3.2 11.599,-7.1 13.5,-8.5 5,-3.9 15.5,-9.3 22.599,-11.8 3.401,-1.2 7.6,-3 9.5,-4.1 1.901,-1.1 5.401,-2.5 7.901,-3.1 2.5,-0.7 10.399,-3.3 17.5,-5.9 7.199,-2.6 15.5,-5.5 18.5,-6.5 21.799,-6.9 29,-12.3 29,-21.6 0,-1.7 0.699,-4.2 1.599,-5.5 1,-1.5 1.401,-3.4 1,-4.9 -0.9,-3.5 -7.099,-10.5 -17.099,-19.2 -4.901,-4.3 -12.301,-10.999 -16.301,-14.9 -4,-3.8 -8.1,-7.4 -9.1,-7.8 -1,-0.5 -2.5,-2.2 -3.5,-3.799 -1,-1.601 -2.9,-3.701 -4.4,-4.601 -1.5,-0.899 -6.1,-4.7 -10.199,-8.3 C 239,226 234.4,222.4 232.9,221.601 231.4,220.8 228.101,218.3 225.4,216 c -2.6,-2.3 -8.1,-6.899 -12,-10.3 -4,-3.3 -7.7,-6.9 -8.299,-8 -0.601,-1.099 -2.5,-2.7 -4.301,-3.599 -1.8,-0.901 -5.4,-3.901 -8.199,-6.5 -20.901,-20.5 -28.201,-27.801 -37,-37 C 144.5,138.9 140.4,135.7 136.9,135.7 c -6,0 -9.1,6.6 -6.299,13.3 2,4.8 2,7.4 0.099,5.7 -1.8,-1.4 -3.599,-6.7 -4.099,-11.599 -0.601,-6.601 -2.701,-10 -5.8,-9.5 -0.401,0.099 -1.7,-0.301 -2.7,-0.901 -1.701,-0.9 -2,-2.099 -2,-7.8 0,-6.4 -0.3,-7.2 -4.601,-13.7 l -4.6,-7 1.8,-5 c 2.7,-7.599 2.3,-16.9 -1,-22.8 -3,-5.5 -3.2,-7.1 -1.099,-12 C 109.7,57 107.9,48.4 101.4,38.9 98,34 97.801,33.3 98.9,30.3 c 2,-5.5 -0.7,-12.1 -7.5,-18.199 l -4.5,-4 -0.7,-9.5 C 85.301,-12.3 82.7,-18.8 78.301,-20.399 70.4,-23.399 59.101,-19.8 49.9,-11.2 40.101,-1.899 30,6.2 27.5,6.9 24.4,7.7 20.2,6.2 15.2,2.3 10.7,-1 8.801,-1 4.301,2.7 -2.399,8.101 -7.1,7.601 -15.399,0.7 -17.1,-0.7 -24,-4 -30.899,-6.7 -37.8,-9.399 -45.8,-12.6 -48.699,-13.899 -66,-21.5 -91.5,-24.6 -101.899,-20.5 c -3.601,1.4 -11.201,9.9 -14,15.7 -2.3,4.6 -2.5,6.2 -2.5,19.5 l -0.101,14.5 -3.699,4.8 c -2,2.601 -4.2,6.7 -4.801,9 -1.6,6 -0.5,20.101 2,25.8 l 2.101,4.6 -2,5.8 c -1.101,3.2 -2,8 -2,10.6 0,6.5 3.5,15.5 7.7,19.801 l 3.399,3.5 -0.7,9.199 c -0.6,8.4 -0.399,9.7 1.601,13.9 1.399,2.901 3.599,5.5 5.599,6.7 2.3,1.3 3.401,2.8 3.5,4.4 0.101,1.301 0.2,3.6 0.3,5.2 0.101,2.4 5.801,11.101 9,13.7 0.7,0.6 2.2,3.3 3.5,6 4,8.8 4.301,9.3 7.2,12.5 3.601,3.901 3.601,4.2 0.2,3.8 -2.299,-0.2 -3.4,-1.399 -5.599,-5.8 C -98.5,168.4 -99.3,167.2 -103.8,165 c -4.099,-2 -4.7,-2.1 -7.899,-0.7 -6.401,2.6 -7.901,5 -11.2,18.1 -3.201,12.8 -17.101,32.701 -38.101,54.8 -11.1,11.7 -19.199,20.6 -21.699,23.901 -1.2,1.599 -5.7,6.599 -10,11.099 -4.2,4.5 -9.301,9.9 -11.301,12.1 -6.3,6.8 -36.199,35 -42.199,39.9 -3.2,2.5 -9.301,6.9 -13.5,9.7 -4.2,2.8 -9.801,7.1 -12.301,9.5 l -4.6,4.4 -1.599,-4.3 c -5.2,-13.9 -11.2,-40.2 -14.401,-62.8 -2.4,-17.5 -2.4,-60.5 0,-78 10,-72.2 39.201,-133 88.201,-183.9 40.899,-42.5 98.5,-75.3 154.599,-88.1 9.101,-2.099 9.8,-2.099 12.901,-0.5 2.899,1.5 3.099,1.8 1.599,3.401 -1.899,2.099 -4.599,9.5 -4.599,12.599 0,4.8 10,8.2 15.299,5.3 1.201,-0.7 5.3,-1.7 9.201,-2.3 6.2,-0.9 7.099,-1.4 8.7,-4.099 1.8,-3.101 1.8,-3.201 -0.601,-8.701 -2.399,-5.299 -7.599,-10.6 -10.7,-10.799 -5.1,-0.5 17.801,-2.901 32.601,-3.5 77.2,-3 154.799,23.5 214.899,73.399 12.9,10.8 34.7,32.9 44.601,45.2 34.199,42.8 57.5,94.7 66.5,148.401 C 355.9,280.4 330.4,374.8 271.3,446.1 219.5,508.4 146.9,548.2 65.101,559.2 c -11,1.5 -52.401,2.7 -62,1.9" /></g><g
           transform="translate(273.2002,54.2998)"
           id="g24"><path
             id="path26"
             style="fill:#000000;fill-opacity:1;fill-rule:nonzero;stroke:none"
             d="m 0,0 c 0.199,-1 1.399,-1.899 2.8,-2.1 1.399,-0.2 2.899,-0.799 3.5,-1.299 1.2,-1.201 9.8,-1.201 9.099,0 C 15.1,-2.899 13.1,-2.3 11.1,-2.1 9,-1.8 5.6,-0.8 3.5,0.101 -0.2,1.7 -0.301,1.7 0,0" /></g><g
           transform="translate(373.5996,547.3999)"
           id="g28"><path
             id="path30"
             style="fill:#000000;fill-opacity:1;fill-rule:nonzero;stroke:none"
             d="m 0,0 c -0.899,-2.2 -0.8,-2.4 0.9,-1.8 0.8,0.4 1.5,1.2 1.5,2 C 2.4,2.1 0.8,2 0,0" /></g><g
           transform="translate(388.2002,546)"
           id="g32"><path
             id="path34"
             style="fill:#000000;fill-opacity:1;fill-rule:nonzero;stroke:none"
             d="m 0,0 c -1.2,-3.1 -10.301,-10.9 -15.4,-13.2 -4,-1.8 -4.6,-3.3 -2.5,-6.2 1.9,-2.7 5,-1.6 6,2.1 0.7,2.2 2,3.6 4.599,4.8 C 0.699,-8.9 4.5,-3.2 1.8,1 1.1,2.2 0.699,2 0,0" /></g><g
           transform="translate(397.2998,541.2998)"
           id="g36"><path
             id="path38"
             style="fill:#000000;fill-opacity:1;fill-rule:nonzero;stroke:none"
             d="M 0,0 C -3.2,-0.6 -2.9,-2 0.8,-3.8 3.7,-5.3 4,-5.3 5.8,-3.7 8.6,-1.2 5.2,1 0,0" /></g><g
           transform="translate(311.2998,535.5)"
           id="g40"><path
             id="path42"
             style="fill:#000000;fill-opacity:1;fill-rule:nonzero;stroke:none"
             d="m 0,0 c -4.5,-2.1 -5.5,-4 -2.5,-4.8 6.4,-1.8 7,-1.7 7.6,0.7 0.3,1.3 0.8,3.1 1.2,3.9 C 7.2,2.1 4.5,2.2 0,0" /></g><g
           transform="translate(292.2002,535)"
           id="g44"><path
             id="path46"
             style="fill:#000000;fill-opacity:1;fill-rule:nonzero;stroke:none"
             d="m 0,0 c -1.601,-2.6 -1.5,-4 0.399,-6.1 2.201,-2.4 1,-5.4 -2.7,-6.9 -4.399,-1.8 -4.8,-3.4 -0.8,-2.8 2,0.3 4.601,0 6.201,-0.9 2.299,-1.1 3.4,-1.2 6.2,-0.2 4.8,1.8 10.899,0.2 11.3,-2.8 0.299,-1.8 1,-2.3 3.299,-2.3 3.401,0 3.601,0.9 0.901,4 -2.5,2.9 -2.5,4.4 0.099,6.9 1.201,1.1 1.601,2.2 1.101,2.5 -1.301,0.8 -4.2,-0.3 -4.2,-1.6 0,-1.3 -12.401,-0.2 -15.2,1.3 C 5.1,-8.1 4.899,-7.2 5.399,-4.4 6.399,1 2.6,4.2 0,0" /></g><g
           transform="translate(361.3994,535.5)"
           id="g48"><path
             id="path50"
             style="fill:#000000;fill-opacity:1;fill-rule:nonzero;stroke:none"
             d="m 0,0 c -0.899,-2.3 0.301,-4.5 2.5,-4.5 1.7,0 1.801,0.3 0.801,3 C 2.101,1.8 0.9,2.3 0,0" /></g><g
           transform="translate(253.5,528.8999)"
           id="g52"><path
             id="path54"
             style="fill:#000000;fill-opacity:1;fill-rule:nonzero;stroke:none"
             d="m 0,0 c -0.4,-1.8 -1.9,-4.3 -3.3,-5.6 -2.5,-2.3 -2.1,-2.7 2.6,-2.3 2.5,0.2 2.599,-0.4 1.099,-5 -1,-2.8 -0.899,-3.4 0.5,-4.2 1.301,-0.7 1.5,-1.7 1,-4.4 -0.599,-3.3 -0.5,-3.4 2.5,-3.4 2.601,0 3.101,0.4 3.101,2.4 0,1.3 0.6,2.9 1.399,3.5 1,0.8 1.301,2.7 1.101,5.8 C 9.6,-8.8 8.399,-6.9 5.8,-6.9 5.1,-6.9 4.5,-5 4.3,-2.2 4.1,1.3 3.6,2.7 2.3,2.9 1.2,3.1 0.5,2.3 0,0" /></g><g
           transform="translate(400.2998,530.3999)"
           id="g56"><path
             id="path58"
             style="fill:#000000;fill-opacity:1;fill-rule:nonzero;stroke:none"
             d="m 0,0 c -0.4,-1 0.4,-2.4 2.3,-4 3.5,-2.8 6,-3 7.4,-0.5 0.8,1.6 0.4,2.2 -2.6,4 C 2.9,2 0.8,2.2 0,0" /></g><g
           transform="translate(358,523)"
           id="g60"><path
             id="path62"
             style="fill:#000000;fill-opacity:1;fill-rule:nonzero;stroke:none"
             d="m 0,0 c -0.9,-0.5 -0.101,-1.2 2.3,-2.1 2.7,-0.9 3.8,-2 4.2,-4.1 0.8,-3.5 4.8,-8.4 8.6,-10.3 3.6,-1.9 3.6,-1.9 4.299,0.9 0.901,3.7 -0.199,5.7 -2.899,5 -1.5,-0.4 -2.8,0 -3.601,1.1 C 6.1,-1.3 2.399,1.5 0,0" /></g><g
           transform="translate(380,520.3999)"
           id="g64"><path
             id="path66"
             style="fill:#000000;fill-opacity:1;fill-rule:nonzero;stroke:none"
             d="M 0,0 C -1.3,-3.2 -0.601,-4.4 2.6,-4.4 5.399,-4.4 5.899,-1.5 3.399,1 1.3,3.1 1.1,3 0,0" /></g><g
           transform="translate(406,517.5)"
           id="g68"><path
             id="path70"
             style="fill:#000000;fill-opacity:1;fill-rule:nonzero;stroke:none"
             d="m 0,0 c -0.7,-1.4 -1.9,-2.5 -2.5,-2.5 -0.601,0 -2,-0.6 -3,-1.4 -1.8,-1.3 -1.8,-1.4 0.399,-2.5 C -3.7,-7.2 -2.5,-7.3 -1.7,-6.7 -1,-6.2 1,-5.4 2.8,-5 c 1.8,0.4 3.2,1 3,1.3 -0.2,0.4 -1,1.9 -1.7,3.5 C 2.399,3.1 1.7,3.2 0,0" /></g><g
           transform="translate(295.2002,510.7998)"
           id="g72"><path
             id="path74"
             style="fill:#000000;fill-opacity:1;fill-rule:nonzero;stroke:none"
             d="m 0,0 c -1.101,-2.4 -2.301,-5.8 -2.7,-7.6 -0.601,-3.1 -0.5,-3.3 1.7,-3 1.8,0.2 2.3,0.9 2.3,3 0,3.7 1.599,5 5.599,4.6 2.601,-0.2 3.401,-0.8 3.901,-2.8 0.399,-1.6 1.399,-2.6 2.8,-2.8 3,-0.4 3.9,2.3 1.7,4.8 -1,1.1 -1.5,2 -1,2 0.399,0 0.2,0.6 -0.401,1.4 -0.7,0.8 -3,1.7 -5.2,2.1 C 6.6,2.1 4.6,2.8 4.199,3.3 3.1,5.1 2,4.1 0,0" /></g><g
           transform="translate(417.5996,513.2998)"
           id="g76"><path
             id="path78"
             style="fill:#000000;fill-opacity:1;fill-rule:nonzero;stroke:none"
             d="m 0,0 c -0.3,-0.4 -0.399,-2.3 0,-4.2 1,-6.3 1.101,-6.4 4.3,-4.5 2.8,1.7 2.9,1.9 1.5,4.5 C 4.3,-1.2 1.101,1.1 0,0" /></g><g
           transform="translate(249,511)"
           id="g80"><path
             id="path82"
             style="fill:#000000;fill-opacity:1;fill-rule:nonzero;stroke:none"
             d="M 0,0 C -1.2,-0.8 -1.101,-1 0.8,-1 2,-1 3,-0.5 3,0 3,1.3 1.899,1.3 0,0" /></g><g
           transform="translate(359,508.2002)"
           id="g84"><path
             id="path86"
             style="fill:#000000;fill-opacity:1;fill-rule:nonzero;stroke:none"
             d="m 0,0 c 0,-1.2 1.899,-2.6 2.6,-1.9 0.2,0.2 -0.201,1 -1.1,1.7 C 0.6,0.6 0,0.6 0,0" /></g><g
           transform="translate(406.5,508)"
           id="g88"><path
             id="path90"
             style="fill:#000000;fill-opacity:1;fill-rule:nonzero;stroke:none"
             d="m 0,0 c -0.3,-0.5 0,-2.9 0.8,-5.2 0.8,-2.4 1.7,-8 2.099,-12.6 0.5,-6.1 1.401,-9.7 3.201,-13.2 2.7,-5.2 4.9,-7.6 5.7,-6.3 1.2,1.9 0.3,17.4 -1,18.4 -2.2,1.9 -1.6,4.9 1,4.9 3.899,0 4.7,1.8 2.5,5.6 C 12.8,-5.8 11.6,-5 9.5,-5 7.7,-5 6,-4.1 4.8,-2.7 2.399,0.3 0.8,1.3 0,0" /></g><g
           transform="translate(242,504.5)"
           id="g92"><path
             id="path94"
             style="fill:#000000;fill-opacity:1;fill-rule:nonzero;stroke:none"
             d="M 0,0 C 0,-0.9 0.6,-1.2 1.5,-0.9 2.3,-0.5 3,0.1 3,0.6 3,1.1 2.3,1.5 1.5,1.5 0.7,1.5 0,0.8 0,0" /></g><g
           transform="translate(377,503)"
           id="g96"><path
             id="path98"
             style="fill:#000000;fill-opacity:1;fill-rule:nonzero;stroke:none"
             d="M 0,0 C 0,-0.5 0.7,-1 1.5,-1 2.3,-1 3,-0.5 3,0 3,0.6 2.3,1 1.5,1 0.7,1 0,0.6 0,0" /></g><g
           transform="translate(260,501.2998)"
           id="g100"><path
             id="path102"
             style="fill:#000000;fill-opacity:1;fill-rule:nonzero;stroke:none"
             d="M 0,0 C 0,-2.8 1.6,-4.7 3.399,-4 5.7,-3.1 6.6,-0.3 4.899,0.8 2.6,2.3 0,1.8 0,0" /></g><g
           transform="translate(390.2998,481.6001)"
           id="g104"><path
             id="path106"
             style="fill:#000000;fill-opacity:1;fill-rule:nonzero;stroke:none"
             d="m 0,0 c -1.6,-1.3 -3.8,-4 -4.8,-6 -1.1,-1.9 -3.2,-4.1 -4.8,-4.7 -2.8,-1.2 -2.9,-1.4 -2.5,-6.8 0.3,-4.6 1.1,-6.5 4.3,-10.9 2.2,-2.8 4.3,-5.2 4.7,-5.2 1.9,0 0.5,-3.8 -2.1,-5.8 -6.3,-4.7 -10.5,-19.7 -6.5,-23.7 1.5,-1.4 2,-1.4 6,1 3.5,2 5.2,2.4 7.9,1.9 5.5,-1 6.9,0.8 6,7.9 -0.3,3.2 -1.6,7.9 -2.8,10.5 -1.3,2.5 -1.8,4.7 -1.2,4.9 5.1,1.7 8,4.2 9.3,7.8 2,5.7 0.9,14.7 -2.5,20.4 C 9.6,-6.2 8.1,-2.8 7.7,-1.1 6.9,2.8 3.9,3.3 0,0" /></g><g
           transform="translate(327.2998,469.2002)"
           id="g108"><path
             id="path110"
             style="fill:#000000;fill-opacity:1;fill-rule:nonzero;stroke:none"
             d="m 0,0 c -1.8,-1.1 -4.3,-7.7 -4.3,-11.3 0,-2.2 0.5,-3.2 2,-3.6 1.3,-0.4 2.4,-1.9 3.1,-4.7 2.9,-10.8 8,-15.6 16.5,-15.6 2.7,0 6,0.6 7.3,1.3 3.5,1.8 6.1,9.4 6.5,19.2 l 0.4,8.4 -5.6,1.2 C 22.9,-4.5 17.5,-2.9 14,-1.6 7.6,0.8 2.2,1.4 0,0" /></g><g
           transform="translate(420,467.2002)"
           id="g112"><path
             id="path114"
             style="fill:#000000;fill-opacity:1;fill-rule:nonzero;stroke:none"
             d="M 0,0 C 0,-1.6 0.7,-3.5 1.5,-4.2 2.399,-4.9 3,-7.7 3.199,-12 3.5,-18.4 3.6,-18.7 6,-18.7 c 2.3,0 2.5,0.4 2.8,5.4 0.2,3.9 -0.101,5.8 -1.401,7.2 -0.899,1 -1.799,3 -2,4.5 C 5.1,1.4 5.199,1.3 2.3,2.2 0.3,2.9 0,2.6 0,0" /></g><g
           transform="translate(38.2002,452.7998)"
           id="g116"><path
             id="path118"
             style="fill:#000000;fill-opacity:1;fill-rule:nonzero;stroke:none"
             d="M 0,0 C 0.3,-0.7 1.3,-1.5 2.399,-1.7 4,-2 4.1,-1.8 2.899,-0.4 1.3,1.5 -0.5,1.7 0,0" /></g><g
           transform="translate(45,446.3999)"
           id="g120"><path
             id="path122"
             style="fill:#000000;fill-opacity:1;fill-rule:nonzero;stroke:none"
             d="m 0,0 c 0,-1.7 2.3,-3.4 4.7,-3.4 1.3,0 2.3,0.5 2.3,1 0,0.6 -1,1 -2.3,1 -1.301,0 -2.801,0.5 -3.5,1.2 C 0.5,0.5 0,0.6 0,0" /></g><g
           transform="translate(64.2998,443.2998)"
           id="g124"><path
             id="path126"
             style="fill:#000000;fill-opacity:1;fill-rule:nonzero;stroke:none"
             d="m 0,0 c -2.1,-0.8 -1.5,-3 1.4,-5.2 l 2.6,-2.1 1.8,3 c 1,1.6 2.4,3 3.1,3.1 C 10.8,-1.1 5.6,0.5 3.2,0.5 2.1,0.5 0.6,0.3 0,0" /></g><g
           transform="translate(319,437.3999)"
           id="g128"><path
             id="path130"
             style="fill:#000000;fill-opacity:1;fill-rule:nonzero;stroke:none"
             d="m 0,0 c 0,-0.8 0.5,-1.2 1,-0.9 0.6,0.3 1,1 1,1.6 C 2,1.2 1.6,1.6 1,1.6 0.5,1.6 0,0.9 0,0" /></g><g
           transform="translate(312.5,421)"
           id="g132"><path
             id="path134"
             style="fill:#000000;fill-opacity:1;fill-rule:nonzero;stroke:none"
             d="m 0,0 c 0.3,-0.5 1.5,-1 2.6,-1 1,0 1.9,0.5 1.9,1 C 4.5,0.6 3.3,1 1.899,1 0.5,1 -0.4,0.6 0,0" /></g><g
           transform="translate(326,415)"
           id="g136"><path
             id="path138"
             style="fill:#000000;fill-opacity:1;fill-rule:nonzero;stroke:none"
             d="M 0,0 C 0.6,-1.1 1.3,-2 1.5,-2 1.8,-2 2,-1.1 2,0 2,1.1 1.3,2 0.5,2 -0.8,2 -0.9,1.6 0,0" /></g><g
           transform="translate(320.5,401.6001)"
           id="g140"><path
             id="path142"
             style="fill:#000000;fill-opacity:1;fill-rule:nonzero;stroke:none"
             d="M 0,0 C 1.7,-2.6 4.399,-4.1 5.399,-3 5.7,-2.7 5.1,-1.8 4,-1.1 2.899,-0.3 1.5,0.8 0.8,1.4 -1.3,3.1 -1.601,2.5 0,0" /></g><g
           transform="translate(562.6992,376.3999)"
           id="g144"><path
             id="path146"
             style="fill:#000000;fill-opacity:1;fill-rule:nonzero;stroke:none"
             d="m 0,0 c -0.3,-0.3 -0.1,-1.8 0.4,-3.3 0.6,-1.8 0.6,-4.3 0,-6.9 -0.799,-3.9 -0.799,-4.2 1.3,-4.2 3.7,0 4.7,1.8 3.101,5.8 C 4,-6.7 3.301,-4.4 3.301,-3.4 3.301,-1.5 1,0.9 0,0" /></g><g
           transform="translate(580.0996,366.3999)"
           id="g148"><path
             id="path150"
             style="fill:#000000;fill-opacity:1;fill-rule:nonzero;stroke:none"
             d="M 0,0 C 0,-1.1 0.3,-1.4 0.6,-0.6 0.9,0.1 0.8,1 0.5,1.3 0.2,1.7 -0.1,1.1 0,0" /></g><g
           transform="translate(574.5,362)"
           id="g152"><path
             id="path154"
             style="fill:#000000;fill-opacity:1;fill-rule:nonzero;stroke:none"
             d="M 0,0 C -0.301,-0.5 -0.101,-1 0.399,-1 1,-1 1.5,-0.5 1.5,0 1.5,0.6 1.3,1 1.1,1 0.8,1 0.3,0.6 0,0" /></g><g
           transform="translate(306.7998,342.2998)"
           id="g156"><path
             id="path158"
             style="fill:#000000;fill-opacity:1;fill-rule:nonzero;stroke:none"
             d="M 0,0 C 0.6,-0.2 1.8,-0.2 2.5,0 3.1,0.3 2.6,0.5 1.2,0.5 -0.2,0.5 -0.7,0.3 0,0" /></g><g
           transform="translate(384,339.9004)"
           id="g160"><path
             id="path162"
             style="fill:#000000;fill-opacity:1;fill-rule:nonzero;stroke:none"
             d="M 0,0 C 0,-1.5 0.5,-2 2.3,-1.7 5,-1.301 4.899,0.199 2.1,1.3 0.399,1.899 0,1.6 0,0" /></g><g
           transform="translate(303,328)"
           id="g164"><path
             id="path166"
             style="fill:#000000;fill-opacity:1;fill-rule:nonzero;stroke:none"
             d="M 0,0 C 0,-0.5 0.6,-1 1.399,-1 2.2,-1 3.2,-0.5 3.5,0 3.8,0.6 3.2,1 2.1,1 0.899,1 0,0.6 0,0" /></g><g
           transform="translate(211,298)"
           id="g168"><path
             id="path170"
             style="fill:#000000;fill-opacity:1;fill-rule:nonzero;stroke:none"
             d="M 0,0 C 0,-0.5 0.5,-1 1.1,-1 1.6,-1 1.8,-0.5 1.5,0 1.2,0.6 0.7,1 0.399,1 0.2,1 0,0.6 0,0" /></g><g
           transform="translate(214,294.5996)"
           id="g172"><path
             id="path174"
             style="fill:#000000;fill-opacity:1;fill-rule:nonzero;stroke:none"
             d="M 0,0 C 0,-0.8 0.5,-1.8 1,-2.1 1.6,-2.399 2,-1.8 2,-0.699 2,0.5 1.6,1.4 1,1.4 0.5,1.4 0,0.801 0,0" /></g><g
           transform="translate(270.5996,285.7998)"
           id="g176"><path
             id="path178"
             style="fill:#000000;fill-opacity:1;fill-rule:nonzero;stroke:none"
             d="m 0,0 c -2.1,-3.2 -3.5,-14.8 -1.7,-14.8 0.6,0 1.1,1.6 1.1,3.5 0,2 0.701,5 1.6,6.6 0.8,1.7 1.4,4 1.2,5.2 C 1.9,2.601 1.8,2.601 0,0" /></g><g
           transform="translate(222,283.7002)"
           id="g180"><path
             id="path182"
             style="fill:#000000;fill-opacity:1;fill-rule:nonzero;stroke:none"
             d="M 0,0 C 0,-0.8 0.7,-2.101 1.6,-2.8 3,-3.9 3.1,-3.8 2.8,-1.7 2.5,0.899 0,2.399 0,0" /></g><g
           transform="translate(282.3994,277.2998)"
           id="g184"><path
             id="path186"
             style="fill:#000000;fill-opacity:1;fill-rule:nonzero;stroke:none"
             d="m 0,0 c -1.3,-4.399 -1.1,-4.6 3.601,-5 2.5,-0.1 5.899,-0.5 7.5,-0.8 2.7,-0.4 2.799,-0.3 1,0.7 -1.101,0.6 -2.201,1.4 -2.5,1.701 -0.8,1 -7.8,6.099 -8.3,6.099 C 1,2.7 0.5,1.5 0,0" /></g><g
           transform="translate(307.5996,272.4004)"
           id="g188"><path
             id="path190"
             style="fill:#000000;fill-opacity:1;fill-rule:nonzero;stroke:none"
             d="m 0,0 c -3.7,-2.5 -3.8,-2.801 -2,-4.101 1,-0.7 2.5,-1.2 3.2,-1.099 1.401,0.3 4.6,7.8 3.3,7.8 C 4.2,2.6 2.101,1.399 0,0" /></g><g
           transform="translate(226.0996,271.0996)"
           id="g192"><path
             id="path194"
             style="fill:#000000;fill-opacity:1;fill-rule:nonzero;stroke:none"
             d="M 0,0 C -1.2,-2.1 -0.1,-3.399 3.5,-4.5 5.4,-5.1 5.601,-4.8 5.101,-2.399 4.3,2 1.7,3.2 0,0" /></g><g
           transform="translate(331.5,271)"
           id="g196"><path
             id="path198"
             style="fill:#000000;fill-opacity:1;fill-rule:nonzero;stroke:none"
             d="M 0,0 C 0.3,-0.5 0.8,-1 1.1,-1 1.3,-1 1.5,-0.5 1.5,0 1.5,0.6 1,1 0.399,1 -0.101,1 -0.3,0.6 0,0" /></g><g
           transform="translate(299.5,270.0996)"
           id="g200"><path
             id="path202"
             style="fill:#000000;fill-opacity:1;fill-rule:nonzero;stroke:none"
             d="M 0,0 C -0.7,-1.199 1.2,-2.399 2.5,-1.6 3.6,-0.899 2.899,0.9 1.5,0.9 1,0.9 0.399,0.5 0,0" /></g><g
           transform="translate(233,262.5996)"
           id="g204"><path
             id="path206"
             style="fill:#000000;fill-opacity:1;fill-rule:nonzero;stroke:none"
             d="M 0,0 C 0,-0.8 0.5,-1.8 1,-2.1 1.6,-2.399 2,-2 2,-1.199 2,-0.399 1.6,0.601 1,0.9 0.5,1.2 0,0.801 0,0" /></g><g
           transform="translate(270.5,262)"
           id="g208"><path
             id="path210"
             style="fill:#000000;fill-opacity:1;fill-rule:nonzero;stroke:none"
             d="m 0,0 c -0.9,-1.5 0.3,-3 2.399,-3 2.5,0 3.301,1.1 2,2.7 C 3.1,1.2 0.899,1.4 0,0" /></g><g
           transform="translate(342,261.2002)"
           id="g212"><path
             id="path214"
             style="fill:#000000;fill-opacity:1;fill-rule:nonzero;stroke:none"
             d="m 0,0 c -2.7,-2.2 -2.2,-5.2 1,-5.2 2.5,0 3.399,1.9 2.2,4.9 C 2.399,1.899 2.399,1.899 0,0" /></g><g
           transform="translate(331.7998,256.5)"
           id="g216"><path
             id="path218"
             style="fill:#000000;fill-opacity:1;fill-rule:nonzero;stroke:none"
             d="m 0,0 c -1.6,-3.5 0.3,-7.3 3.9,-8 1.5,-0.4 3.6,-1.1 4.7,-1.6 1,-0.6 4.3,-1.3 7.2,-1.6 3,-0.3 5.9,-1.2 6.5,-1.9 0.6,-0.8 2.3,-1.4 3.8,-1.4 1.5,0 3.1,-0.4 3.6,-0.9 0.6,-0.5 4.8,-1.1 9.5,-1.3 7,-0.2 8.5,0 8.5,1.2 0,1.2 -1.8,1.5 -9.5,1.8 -5.2,0.1 -10.4,0.6 -11.5,1.2 -6.5,3 -10.6,4.4 -15,4.9 C 6.8,-7 6.7,-6.9 6.4,-3.4 6.2,-0.7 5.5,0.5 3.6,1.4 1.4,2.4 1,2.2 0,0" /></g><g
           transform="translate(301.3994,256.7998)"
           id="g220"><path
             id="path222"
             style="fill:#000000;fill-opacity:1;fill-rule:nonzero;stroke:none"
             d="m 0,0 c -0.399,-0.6 0.101,-1.7 1.101,-2.5 2,-1.399 3.5,-0.3 3.5,2.5 C 4.601,1.5 1,1.601 0,0" /></g><g
           transform="translate(247,251)"
           id="g224"><path
             id="path226"
             style="fill:#000000;fill-opacity:1;fill-rule:nonzero;stroke:none"
             d="M 0,0 C 0,-0.5 1,-1 2.3,-1 4.1,-1 4.2,-0.8 3,0 1.1,1.3 0,1.3 0,0" /></g><g
           transform="translate(305,249.9004)"
           id="g228"><path
             id="path230"
             style="fill:#000000;fill-opacity:1;fill-rule:nonzero;stroke:none"
             d="m 0,0 c 0,-0.5 -1.5,-2.301 -3.2,-4 -3.5,-3.2 -3.2,-3.5 1.8,-1.7 3.6,1.3 4.7,2.899 3.799,5.3 C 1.7,1.3 0,1.6 0,0" /></g><g
           transform="translate(255,248.0996)"
           id="g232"><path
             id="path234"
             style="fill:#000000;fill-opacity:1;fill-rule:nonzero;stroke:none"
             d="M 0,0 C 0,-0.8 2.3,-1.899 7.3,-3.5 10.5,-4.5 9,-2 5.5,-0.5 1.6,1.101 0,1.301 0,0" /></g><g
           transform="translate(388.5,244.7998)"
           id="g236"><path
             id="path238"
             style="fill:#000000;fill-opacity:1;fill-rule:nonzero;stroke:none"
             d="M 0,0 C -2.2,-1.2 -3.4,-2.3 -2.7,-2.6 -2,-2.8 -0.601,-2.3 0.399,-1.399 1.399,-0.5 2.7,0.2 3.3,0.2 4,0.2 4.5,0.7 4.5,1.2 4.5,2.4 4.8,2.5 0,0" /></g><g
           transform="translate(269,244.0996)"
           id="g240"><path
             id="path242"
             style="fill:#000000;fill-opacity:1;fill-rule:nonzero;stroke:none"
             d="m 0,0 -2.5,-0.699 2.5,-0.7 c 3.7,-1 8.6,-0.901 7.5,0.2 C 5.899,0.2 2.7,0.7 0,0" /></g><g
           transform="translate(242.5,241)"
           id="g244"><path
             id="path246"
             style="fill:#000000;fill-opacity:1;fill-rule:nonzero;stroke:none"
             d="m 0,0 c -2.101,-3.4 9.2,-11.1 20.8,-14.1 8.599,-2.3 20.5,-2.4 27.5,-0.4 4.4,1.3 5.2,1.9 5.2,4 0,3.5 -2.101,4.1 -15.2,4.9 -11.7,0.7 -20,2.1 -29.2,5 C 3.399,1.3 0.899,1.4 0,0" /></g><g
           transform="translate(402.5996,238.4004)"
           id="g248"><path
             id="path250"
             style="fill:#000000;fill-opacity:1;fill-rule:nonzero;stroke:none"
             d="M 0,0 C -0.8,-2 -0.8,-5.801 0,-7.801 0.5,-9.101 0.9,-9.2 2,-8.301 4.101,-6.601 3.601,1.6 1.4,1.6 1,1.6 0.3,0.899 0,0" /></g><g
           transform="translate(373,232.5)"
           id="g252"><path
             id="path254"
             style="fill:#000000;fill-opacity:1;fill-rule:nonzero;stroke:none"
             d="m 0,0 c -3.601,-0.7 -9.3,-1.3 -12.7,-1.4 -5.1,-0.1 -6.401,-0.5 -7.7,-2.3 -2.201,-3.1 -0.5,-5.5 6.2,-8.6 10.8,-5 24.5,-2.4 29.3,5.5 2,3.1 2,3.5 0.5,5.8 C 13.7,1.9 10.8,2 0,0" /></g><g
           transform="translate(210.5,227.2998)"
           id="g256"><path
             id="path258"
             style="fill:#000000;fill-opacity:1;fill-rule:nonzero;stroke:none"
             d="m 0,0 c -1.3,-1.2 -1.601,-2.7 -1.2,-5.6 1.099,-8.1 12.7,-16.299 28.9,-20.299 9.699,-2.401 11.4,-2.601 28.8,-2.201 15.8,0.4 19.399,0.8 25,2.701 7.6,2.599 10,4.5 10,7.699 0,4 -2.7,4.5 -20.8,3.801 C 52.899,-14.6 46.3,-13.8 32,-9.1 23.399,-6.3 8.2,-0.2 7.1,0.8 5.5,2.2 1.8,1.8 0,0" /></g><g
           transform="translate(401.2002,224.7998)"
           id="g260"><path
             id="path262"
             style="fill:#000000;fill-opacity:1;fill-rule:nonzero;stroke:none"
             d="M 0,0 C -1.7,-1.7 -1.5,-4.5 0.399,-5.2 3.199,-6.3 3.8,-5.8 3.199,-3 2.3,0.601 1.399,1.4 0,0" /></g><g
           transform="translate(380.5,206.4004)"
           id="g264"><path
             id="path266"
             style="fill:#000000;fill-opacity:1;fill-rule:nonzero;stroke:none"
             d="m 0,0 c -6.101,-1.7 -13.601,-1.801 -20.5,-0.301 -10.101,2.2 -12.8,-1.199 -6.9,-8.399 4.799,-5.8 10,-8 18.9,-8 9.7,0 15.8,2.599 19.5,8.2 3.1,4.5 2.7,7.199 -1.101,8.899 C 6.899,1.8 6.399,1.8 0,0" /></g><g
           transform="translate(198.7002,200.7002)"
           id="g268"><path
             id="path270"
             style="fill:#000000;fill-opacity:1;fill-rule:nonzero;stroke:none"
             d="m 0,0 c -3.5,-2.5 -6.7,-8.101 -6.7,-11.5 0,-7.601 10.899,-17.4 24,-21.5 29.599,-9.3 52.099,-9.8 73,-1.601 7.5,3 8.5,3.701 8.8,6.101 0.5,4 -2.701,4.8 -14.8,4.3 -6.7,-0.401 -12.101,-0.1 -16.3,0.9 -3.4,0.699 -8.9,1.699 -12.2,2.1 -8.3,0.9 -20.8,3.5 -22,4.5 -0.601,0.5 -4.2,2.2 -8,3.8 C 17.699,-9.601 13.5,-7.3 8.5,-3.4 3,0.899 1.8,1.399 0,0" /></g><g
           transform="translate(346.2002,180)"
           id="g272"><path
             id="path274"
             style="fill:#000000;fill-opacity:1;fill-rule:nonzero;stroke:none"
             d="m 0,0 c -1.801,-3 -1.5,-7.4 0.899,-10.4 1.201,-1.5 4.901,-4.1 8.3,-5.8 5.7,-3 6.801,-3.2 16.601,-3.3 12.899,0 17.3,1.6 21.399,7.8 3.7,5.8 4.2,8.4 2,10.9 C 47.5,1 46.6,1.1 41.8,0.5 28.5,-1.1 14.1,-1.2 10.3,0.4 5.199,2.6 1.5,2.4 0,0" /></g><g
           transform="translate(183.2998,160.2002)"
           id="g276"><path
             id="path278"
             style="fill:#000000;fill-opacity:1;fill-rule:nonzero;stroke:none"
             d="m 0,0 c -2.4,-1.5 -3.2,-5.7 -2,-10.2 1.6,-5.901 11,-16 18.2,-19.5 8.2,-4.1 19.6,-5.7 40,-5.901 l 18,-0.099 9.5,3.4 c 12.6,4.5 16.3,6.5 21.6,11.3 8,7.3 5.3,10.5 -6.4,7.6 -12,-2.8 -36.6,-2.5 -55,0.7 C 22.9,-9 21,-8.5 11.2,-3.601 1.2,1.2 1.7,1.1 0,0" /></g><g
           transform="translate(344.3994,154.2002)"
           id="g280"><path
             id="path282"
             style="fill:#000000;fill-opacity:1;fill-rule:nonzero;stroke:none"
             d="m 0,0 c -4.3,-2.8 -3.6,-8.3 1.801,-13.3 8.599,-8 17.099,-10.7 29.3,-9.4 5.399,0.5 7.2,1.3 10.799,4.2 2.3,1.899 4.8,4.8 5.5,6.399 C 48.5,-9.5 48.4,-9 46.601,-7.2 45,-5.601 43.4,-5.2 39.301,-5.4 32,-5.7 15.4,-3.4 8.2,-1.101 1.2,1 1.5,1 0,0" /></g><g
           transform="translate(180.2002,122.7998)"
           id="g284"><path
             id="path286"
             style="fill:#000000;fill-opacity:1;fill-rule:nonzero;stroke:none"
             d="M 0,0 C -3,-3 -0.301,-8.899 6.5,-13.899 19.399,-23.3 24.1,-25.3 40.8,-28.2 c 9.899,-1.699 21.599,-0.9 34,2.301 10.599,2.699 12.7,3.599 19.7,8.899 6.3,4.7 8,7.2 6.699,9.3 C 100.3,-6.2 85.1,-7.1 73,-9.399 66.6,-10.6 60.899,-10.899 51.8,-10.5 39.899,-10.1 38.5,-9.8 22.5,-4.399 5,1.4 2,2 0,0" /></g><g
           transform="translate(341.8994,121.9004)"
           id="g288"><path
             id="path290"
             style="fill:#000000;fill-opacity:1;fill-rule:nonzero;stroke:none"
             d="M 0,0 C -2.1,-2.101 -2,-3.801 0.7,-9.101 2.801,-13.2 9.101,-18.7 13.801,-20.5 19.9,-22.9 31.2,-22 36.9,-18.801 c 8.3,4.7 6,10.901 -4.2,10.901 -6.2,0 -11.599,1.599 -21.7,6.4 C 6.801,0.5 3.101,2.1 2.7,2.1 2.4,2.1 1.2,1.199 0,0" /></g><g
           transform="translate(340.5,93)"
           id="g292"><path
             id="path294"
             style="fill:#000000;fill-opacity:1;fill-rule:nonzero;stroke:none"
             d="m 0,0 c -2.5,-8 11.1,-21.1 23.7,-22.7 8.5,-1.2 12.8,3.2 10.8,10.8 -0.601,2.2 -1.601,4.2 -2.3,4.4 -0.7,0.1 -4.6,1.1 -8.7,2 -4.101,1 -10.101,3 -13.2,4.6 C 3.5,2.5 0.899,2.7 0,0" /></g><g
           transform="translate(187.2002,87.7998)"
           id="g296"><path
             id="path298"
             style="fill:#000000;fill-opacity:1;fill-rule:nonzero;stroke:none"
             d="M 0,0 C -2.101,-2.8 -2.101,-5.5 0.199,-10.399 4.1,-18.7 12,-23.3 24.3,-24.399 31.1,-25 45,-22.899 52.399,-20 c 4.901,1.8 18,9.8 22,13.4 2.3,2 2.201,5.3 -0.099,6.201 C 73.6,-0.2 67,-0.5 59.6,-1.1 39.8,-2.899 13.399,-2.5 7.899,-0.5 2.699,1.5 1.399,1.601 0,0" /></g></g></g></g></svg>