<?xml version="1.0" standalone="no"?>
<!DOCTYPE svg PUBLIC "-//W3C//DTD SVG 20010904//EN"
 "http://www.w3.org/TR/2001/REC-SVG-20010904/DTD/svg10.dtd">
<svg version="1.0" xmlns="http://www.w3.org/2000/svg"
 width="640.000000pt" height="640.000000pt" viewBox="0 0 640.000000 640.000000"
 preserveAspectRatio="xMidYMid meet">

<g transform="translate(0.000000,640.000000) scale(0.100000,-0.100000)"
fill="#000000" stroke="none">
<path d="M0 3200 l0 -3200 1275 0 1274 0 -5 30 c-6 26 -2 32 30 51 34 20 35
23 22 38 -19 21 -46 95 -46 126 0 48 100 82 153 53 12 -7 53 -17 92 -23 62 -9
71 -14 87 -41 18 -31 18 -32 -6 -87 -35 -77 -81 -111 -142 -104 -38 4 -50 1
-72 -19 l-27 -23 1883 -1 1882 0 0 3200 0 3200 -3200 0 -3200 0 0 -3200z
m3992 2388 c9 -7 18 -24 20 -37 2 -19 17 -32 61 -54 64 -33 83 -61 67 -101
-11 -30 11 -53 61 -62 65 -13 97 -66 67 -113 -9 -15 -6 -24 16 -53 22 -29 25
-40 17 -61 -5 -14 -15 -28 -21 -32 -8 -5 -6 -14 5 -31 14 -22 14 -26 -5 -52
-18 -24 -19 -32 -9 -61 9 -25 9 -53 0 -115 -16 -114 -15 -121 17 -136 15 -7
31 -12 37 -11 44 11 67 0 165 -80 139 -114 169 -135 285 -204 55 -32 116 -71
135 -85 50 -39 155 -93 226 -118 34 -12 76 -30 95 -41 19 -11 54 -25 79 -31
25 -7 104 -33 175 -59 72 -26 155 -55 185 -65 218 -69 290 -123 290 -216 0
-17 7 -42 16 -55 10 -15 14 -34 10 -49 -9 -35 -71 -105 -171 -192 -49 -43
-123 -110 -163 -149 -40 -38 -81 -74 -91 -78 -10 -5 -25 -22 -35 -38 -10 -16
-29 -37 -44 -46 -15 -9 -61 -47 -102 -83 -41 -37 -87 -73 -102 -81 -15 -8 -48
-33 -75 -56 -26 -23 -81 -69 -120 -103 -40 -33 -77 -69 -83 -80 -6 -11 -25
-27 -43 -36 -18 -9 -54 -39 -82 -65 -209 -205 -282 -278 -370 -370 -111 -117
-152 -149 -187 -149 -60 0 -91 66 -63 133 20 48 20 74 1 57 -18 -14 -36 -67
-41 -116 -6 -66 -27 -100 -58 -95 -4 1 -17 -3 -27 -9 -17 -9 -20 -21 -20 -78
0 -64 -3 -72 -46 -137 l-46 -70 18 -50 c27 -76 23 -169 -10 -228 -30 -55 -32
-71 -11 -120 31 -74 13 -160 -52 -255 -34 -49 -36 -56 -25 -86 20 -55 -7 -121
-75 -182 l-45 -40 -7 -95 c-9 -109 -35 -174 -79 -190 -79 -30 -192 6 -284 92
-98 93 -199 174 -224 181 -31 8 -73 -7 -123 -46 -45 -33 -64 -33 -109 4 -67
54 -114 49 -197 -20 -17 -14 -86 -47 -155 -74 -69 -27 -149 -59 -178 -72 -174
-76 -429 -108 -532 -66 -38 15 -105 90 -137 152 -27 53 -28 61 -28 200 l-1
145 -37 48 c-20 26 -42 67 -48 90 -16 60 -5 201 20 258 l21 46 -20 58 c-11 32
-20 80 -20 106 0 65 35 155 77 198 l34 35 -7 92 c-6 84 -4 97 16 139 14 29 36
55 56 67 23 13 34 28 35 44 1 13 2 36 3 52 1 24 58 111 90 137 7 6 22 33 35
60 40 88 43 93 72 125 36 39 36 42 2 38 -23 -2 -34 -14 -56 -58 -73 -143 -81
-155 -126 -177 -41 -20 -47 -21 -79 -7 -64 26 -79 50 -112 181 -32 128 -171
327 -381 548 -111 117 -192 206 -217 239 -12 16 -57 66 -100 111 -42 45 -93
99 -113 121 -68 73 -364 352 -429 404 -36 28 -101 76 -145 105 -84 55 -152
121 -179 173 -22 43 -21 154 1 189 24 36 71 53 148 53 56 0 65 3 65 18 0 10 5
23 12 30 19 19 121 14 178 -8 60 -24 186 -26 420 -10 80 6 378 14 663 19 l518
8 62 61 c68 68 92 75 146 45 35 -21 45 -15 33 18 -13 32 2 67 34 81 23 11 28
10 40 -7 29 -39 7 -115 -33 -115 -17 0 -17 -24 2 -61 13 -24 14 -36 4 -72 -7
-23 -13 -44 -13 -47 -3 -17 -20 -31 -33 -26 -8 3 -47 -1 -86 -9 -97 -20 -411
-20 -526 0 -89 16 -194 15 -666 -5 -231 -10 -325 -22 -325 -42 0 -11 84 -6
179 12 46 9 71 9 88 1 34 -15 28 -29 -14 -36 -21 -3 -72 -24 -114 -45 -68 -35
-82 -39 -135 -36 -32 2 -71 7 -85 11 -25 6 -27 4 -33 -37 -3 -24 -9 -59 -12
-78 -5 -33 1 -44 68 -129 40 -52 98 -126 128 -166 207 -271 679 -766 830 -872
47 -32 93 -62 102 -66 10 -3 43 3 75 14 45 16 73 19 126 15 47 -3 67 -2 65 6
-5 15 -81 39 -148 47 -53 6 -55 7 -58 37 -3 27 2 33 34 49 55 26 101 13 259
-73 78 -42 178 -146 215 -224 18 -38 34 -68 35 -68 1 0 0 20 -3 45 -6 58 10
95 59 134 55 44 189 66 189 31 0 -4 -30 -39 -67 -77 -63 -64 -83 -91 -97 -135
-4 -12 -16 -18 -36 -18 -30 0 -31 -1 -25 -32 12 -59 16 -68 38 -80 12 -6 34
-13 50 -14 15 -2 35 -11 43 -19 15 -14 44 -21 44 -9 0 10 -65 64 -77 64 -15 0
-16 9 -3 30 6 10 10 11 10 3 0 -7 5 -13 10 -13 6 0 10 17 10 37 0 37 24 116
43 141 26 33 115 82 151 82 40 0 41 -2 24 -30 -16 -25 -5 -35 22 -20 24 13 70
6 70 -10 0 -6 24 -10 53 -10 40 1 48 3 35 11 -38 22 -15 154 28 165 13 3 24
10 24 15 0 5 -10 7 -23 4 -19 -5 -27 1 -45 33 -30 54 -28 77 12 108 l34 27
-23 21 c-13 12 -26 36 -29 54 -5 28 -1 39 23 63 l29 29 -28 29 c-32 32 -32 60
2 98 34 37 67 45 152 34 42 -5 83 -15 91 -21 23 -19 18 -79 -9 -115 -24 -31
-24 -31 -5 -56 26 -33 24 -61 -6 -89 l-25 -24 31 -28 c29 -27 31 -33 27 -79
-3 -32 -13 -58 -27 -73 l-21 -23 20 -25 c11 -15 20 -34 20 -45 0 -33 -36 -113
-58 -129 -21 -14 -21 -17 -7 -45 13 -25 19 -28 35 -19 10 6 25 22 32 38 12 24
19 27 61 26 57 0 89 -22 135 -90 19 -27 40 -53 48 -57 15 -8 17 -4 28 46 5 22
12 27 35 27 77 0 147 -66 158 -150 10 -72 -46 -107 -85 -53 l-20 28 -13 -28
c-21 -46 -4 -52 134 -52 124 0 189 12 258 46 35 17 125 119 167 190 27 44 83
89 112 89 26 0 158 -71 165 -89 3 -7 -3 -28 -13 -45 -15 -26 -33 -36 -110 -62
-51 -17 -100 -39 -110 -48 -17 -16 -37 -31 -134 -97 -27 -18 -48 -35 -48 -38
0 -10 40 -32 49 -27 5 3 11 19 14 35 8 37 101 92 135 80 16 -6 25 -3 35 11 24
35 66 61 119 75 46 11 58 11 93 -2 80 -30 88 -29 166 26 41 28 117 85 169 126
52 41 108 83 124 93 15 9 42 27 60 39 17 13 55 39 83 58 54 36 270 249 377
369 40 47 61 80 68 109 5 23 22 59 39 79 l29 37 -25 17 c-14 9 -42 46 -62 83
-33 60 -95 131 -115 131 -4 0 -20 11 -35 25 -16 14 -50 40 -77 58 -94 61 -65
82 57 43 45 -14 103 -30 130 -36 26 -6 56 -19 67 -30 22 -22 60 -27 60 -7 0
21 -22 37 -52 37 -16 0 -31 7 -37 18 -16 30 -347 216 -456 256 -53 20 -115 46
-179 77 -22 10 -41 18 -42 16 -4 -4 97 -107 157 -160 l54 -49 -34 6 c-19 3
-42 13 -51 21 -9 8 -22 15 -29 15 -6 0 -45 18 -85 40 -84 46 -144 66 -239 80
-71 11 -200 52 -224 72 -16 13 -65 101 -73 133 -5 16 -9 13 -30 -20 -13 -22
-41 -59 -62 -82 -42 -47 -46 -71 -22 -128 20 -50 12 -79 -32 -109 -21 -14 -31
-27 -25 -31 14 -8 14 -82 1 -90 -21 -13 -41 17 -38 54 3 33 1 36 -22 36 -24 0
-25 -2 -22 -53 2 -31 -2 -60 -9 -68 -29 -35 -89 1 -89 54 0 24 -21 38 -44 29
-12 -5 -12 -13 -4 -40 12 -40 4 -87 -16 -87 -7 0 -25 9 -40 21 -20 16 -26 29
-26 60 0 28 -4 39 -15 39 -23 0 -28 -24 -15 -64 22 -67 -20 -98 -74 -55 -23
18 -26 26 -20 56 l7 35 -38 -5 c-50 -7 -63 -22 -36 -39 11 -7 21 -19 21 -27 0
-18 -29 -51 -45 -51 -17 0 -41 31 -49 63 -3 15 -12 27 -20 27 -21 0 -46 35
-53 72 -5 35 -5 35 -42 26 l-36 -9 -3 -106 c-2 -93 0 -110 19 -142 39 -65 62
-105 78 -137 18 -35 51 -77 68 -87 7 -4 21 -2 32 5 26 16 39 3 23 -22 -16 -26
-15 -35 4 -54 21 -21 31 -20 37 4 7 26 33 36 53 19 11 -9 13 -22 9 -51 -6 -31
-4 -38 10 -38 9 0 15 6 14 13 -4 29 3 37 30 37 30 0 53 -16 71 -51 16 -29 52
-24 72 11 14 24 24 30 53 30 31 0 35 -3 35 -26 0 -26 1 -27 49 -21 59 7 82 -7
100 -61 26 -79 -35 -118 -197 -126 -170 -9 -190 -3 -269 71 -37 35 -104 85
-147 111 -162 95 -225 186 -273 391 -14 60 -37 125 -52 148 -35 58 -90 78
-265 98 -77 9 -152 23 -170 32 -83 43 -148 123 -194 240 -27 69 -32 95 -32
164 0 92 24 234 46 277 7 15 14 38 14 52 0 14 7 36 16 48 26 38 8 36 -20 -1
-33 -43 -83 -67 -97 -46 -6 8 -8 33 -5 57 5 35 2 44 -14 54 -12 8 -20 24 -20
41 0 23 -5 29 -30 34 -42 8 -46 20 -16 52 38 40 34 54 -14 46 -36 -6 -40 -5
-46 19 -12 49 4 74 81 131 60 44 81 55 113 55 31 0 41 5 52 25 16 30 40 37
217 65 107 17 137 19 155 9 13 -7 48 -13 78 -14 30 -1 66 -5 80 -9 20 -6 34
-1 64 23 50 40 119 54 249 50 100 -4 110 -6 128 -27 23 -29 45 -24 86 21 34
36 60 58 96 82 31 20 77 11 77 -15 0 -13 10 -19 38 -22 20 -3 44 -7 52 -9 9
-2 16 4 18 18 3 18 -4 24 -38 33 -48 13 -46 20 7 30 61 12 108 11 125 -2z
m-1518 -54 c19 -49 -7 -123 -31 -92 -17 21 -22 59 -13 84 11 27 35 32 44 8z
m-18 -161 c-11 -11 -19 6 -11 24 8 17 8 17 12 0 3 -10 2 -21 -1 -24z m-132
-310 c10 -68 10 -131 0 -145 -6 -7 -16 -42 -23 -78 -14 -70 -26 -100 -42 -100
-18 0 -22 31 -11 83 6 29 15 96 21 150 9 91 21 127 41 127 5 0 11 -17 14 -37z
m1527 -1173 c23 -13 44 -53 53 -102 4 -21 23 -66 42 -100 37 -66 47 -108 27
-115 -11 -4 -63 44 -63 58 0 4 -20 42 -44 85 -41 74 -51 107 -48 162 2 25 5
26 33 12z m1039 -599 c0 -49 -12 -89 -27 -95 -13 -5 -14 2 -8 51 4 32 9 61 12
66 10 17 23 5 23 -22z m-1069 -661 c27 -15 24 -39 -6 -50 -52 -20 -70 -20 -95
-1 -24 19 -24 20 -6 40 21 23 74 28 107 11z m359 -1224 c0 -3 -4 -8 -10 -11
-5 -3 -10 -1 -10 4 0 6 5 11 10 11 6 0 10 -2 10 -4z m406 -18 c-3 -13 -6 -29
-6 -35 0 -7 -4 -13 -10 -13 -5 0 -10 16 -10 35 0 26 4 35 16 35 12 0 15 -6 10
-22z m-447 -58 c12 -29 14 -30 26 -13 13 17 14 17 29 -2 14 -18 15 -18 16 -2
0 24 58 49 83 36 9 -6 22 -7 28 -4 20 13 59 -24 59 -55 0 -17 5 -30 13 -30 6
0 23 -23 36 -51 19 -42 22 -61 16 -98 -10 -71 -7 -108 15 -143 22 -36 26 -83
9 -94 -6 -4 -107 -9 -225 -11 l-213 -4 -17 26 c-14 21 -15 38 -9 93 8 74 8 74
-1 118 -5 25 -1 37 21 60 54 60 76 103 69 140 -4 21 -2 40 6 49 18 21 23 19
39 -15z m701 -72 c0 -20 5 -40 10 -43 12 -7 10 -65 -2 -65 -4 0 -8 -6 -8 -14
0 -7 -8 -16 -17 -18 -14 -4 -19 2 -20 25 -3 31 -19 50 -38 43 -6 -2 -18 2 -28
9 -15 11 -15 13 7 23 13 6 27 23 30 38 4 15 17 36 28 46 27 23 38 10 38 -44z
m-195 32 c3 -5 1 -10 -4 -10 -6 0 -11 5 -11 10 0 6 2 10 4 10 3 0 8 -4 11 -10z
m405 -70 c0 -5 -5 -10 -11 -10 -5 0 -7 5 -4 10 3 6 8 10 11 10 2 0 4 -4 4 -10z
m-370 -24 c0 -3 -4 -8 -10 -11 -5 -3 -10 -1 -10 4 0 6 5 11 10 11 6 0 10 -2
10 -4z m-58 -119 c2 -26 8 -41 15 -40 12 3 10 -27 -2 -47 -11 -18 -43 -10 -49
13 -8 30 -8 122 1 130 13 14 32 -16 35 -56z m144 28 c8 -20 -14 -55 -34 -55
-18 0 -42 18 -42 31 0 28 67 49 76 24z m-1817 -322 c30 -17 31 -20 31 -88 0
-96 -14 -140 -50 -162 -32 -18 -39 -33 -17 -33 8 0 22 -9 32 -21 18 -19 18
-22 2 -52 -9 -18 -19 -44 -23 -60 -3 -15 -18 -36 -31 -47 -49 -39 -214 -6
-242 48 -5 10 -11 35 -15 57 -7 48 27 118 60 123 18 3 19 9 16 72 l-4 68 48
36 c27 19 65 41 84 47 19 6 39 15 45 20 14 13 30 11 64 -8z"/>
<path d="M3736 5474 c-9 -22 -8 -24 9 -18 8 4 15 12 15 20 0 19 -16 18 -24 -2z"/>
<path d="M3882 5460 c-12 -31 -103 -109 -154 -132 -40 -18 -46 -33 -25 -62 19
-27 50 -16 60 21 7 22 20 36 46 48 80 36 118 93 91 135 -7 12 -11 10 -18 -10z"/>
<path d="M3973 5413 c-32 -6 -29 -20 8 -38 29 -15 32 -15 50 1 28 25 -6 47
-58 37z"/>
<path d="M3113 5355 c-45 -21 -55 -40 -25 -48 64 -18 70 -17 76 7 3 13 8 31
12 39 9 23 -18 24 -63 2z"/>
<path d="M2922 5350 c-16 -26 -15 -40 4 -61 22 -24 10 -54 -27 -69 -44 -18
-48 -34 -8 -28 20 3 46 0 62 -9 23 -11 34 -12 62 -2 48 18 109 2 113 -28 3
-18 10 -23 33 -23 34 0 36 9 9 40 -25 29 -25 44 1 69 12 11 16 22 11 25 -13 8
-42 -3 -42 -16 0 -13 -124 -2 -152 13 -15 8 -17 17 -12 45 10 54 -28 86 -54
44z"/>
<path d="M3614 5355 c-9 -23 3 -45 25 -45 17 0 18 3 8 30 -12 33 -24 38 -33
15z"/>
<path d="M2535 5289 c-4 -18 -19 -43 -33 -56 -25 -23 -21 -27 26 -23 25 2 26
-4 11 -50 -10 -28 -9 -34 5 -42 13 -7 15 -17 10 -44 -6 -33 -5 -34 25 -34 26
0 31 4 31 24 0 13 6 29 14 35 10 8 13 27 11 58 -4 44 -16 63 -42 63 -7 0 -13
19 -15 47 -2 35 -7 49 -20 51 -11 2 -18 -6 -23 -29z"/>
<path d="M4003 5304 c-4 -10 4 -24 23 -40 35 -28 60 -30 74 -5 8 16 4 22 -26
40 -42 25 -63 27 -71 5z"/>
<path d="M3580 5230 c-9 -5 -1 -12 23 -21 27 -9 38 -20 42 -41 8 -35 48 -84
86 -103 36 -19 36 -19 43 9 9 37 -2 57 -29 50 -15 -4 -28 0 -36 11 -68 82
-105 110 -129 95z"/>
<path d="M3800 5204 c-13 -32 -6 -44 26 -44 28 0 33 29 8 54 -21 21 -23 20
-34 -10z"/>
<path d="M4060 5175 c-7 -14 -19 -25 -25 -25 -6 0 -20 -6 -30 -14 -18 -13 -18
-14 4 -25 14 -8 26 -9 34 -3 7 5 27 13 45 17 18 4 32 10 30 13 -2 4 -10 19
-17 35 -17 33 -24 34 -41 2z"/>
<path d="M2962 5129 c-18 -30 -42 -99 -42 -122 0 -5 10 -7 23 -5 16 2 22 10
22 30 0 37 16 50 56 46 26 -2 34 -8 39 -28 4 -16 14 -26 28 -28 30 -4 39 23
17 48 -10 11 -15 20 -10 20 4 0 2 6 -4 14 -7 8 -30 17 -52 21 -21 4 -43 14
-48 22 -6 12 -12 9 -29 -18z"/>
<path d="M4176 5133 c-3 -4 -4 -23 0 -42 10 -63 11 -64 43 -45 28 17 29 19 15
45 -15 30 -47 53 -58 42z"/>
<path d="M2490 5110 c-12 -8 -11 -10 8 -10 12 0 22 5 22 10 0 13 -11 13 -30 0z"/>
<path d="M3590 5082 c0 -12 19 -26 26 -19 2 2 -2 10 -11 17 -9 8 -15 8 -15 2z"/>
<path d="M4065 5080 c-3 -5 0 -29 8 -52 8 -24 17 -80 21 -126 5 -61 14 -97 32
-132 27 -52 49 -76 57 -63 12 19 3 174 -10 184 -22 19 -16 49 10 49 39 0 47
18 25 56 -15 26 -27 34 -48 34 -18 0 -35 9 -47 23 -24 30 -40 40 -48 27z"/>
<path d="M2420 5045 c0 -9 6 -12 15 -9 8 4 15 10 15 15 0 5 -7 9 -15 9 -8 0
-15 -7 -15 -15z"/>
<path d="M3770 5030 c0 -5 7 -10 15 -10 8 0 15 5 15 10 0 6 -7 10 -15 10 -8 0
-15 -4 -15 -10z"/>
<path d="M2600 5013 c0 -28 16 -47 34 -40 23 9 32 37 15 48 -23 15 -49 10 -49
-8z"/>
<path d="M3903 4816 c-16 -13 -38 -40 -48 -60 -11 -19 -32 -41 -48 -47 -28
-12 -29 -14 -25 -69 3 -46 11 -66 38 -101 19 -24 40 -48 47 -52 22 -13 15 -42
-16 -65 -63 -47 -105 -197 -65 -237 15 -14 20 -14 60 10 35 20 52 24 79 19 55
-10 69 8 60 79 -3 32 -16 79 -28 105 -13 25 -18 47 -12 49 51 17 80 42 93 78
20 57 9 147 -25 204 -14 25 -29 59 -33 76 -8 39 -38 44 -77 11z"/>
<path d="M3273 4692 c-18 -11 -43 -77 -43 -113 0 -22 5 -32 20 -36 13 -4 24
-19 31 -47 29 -108 80 -156 165 -156 27 0 60 6 73 13 35 18 61 94 65 192 l4
84 -56 12 c-30 6 -84 22 -119 35 -64 24 -118 30 -140 16z"/>
<path d="M4200 4672 c0 -16 7 -35 15 -42 9 -7 15 -35 17 -78 3 -64 4 -67 28
-67 23 0 25 4 28 54 2 39 -1 58 -14 72 -9 10 -18 30 -20 45 -3 30 -2 29 -31
38 -20 7 -23 4 -23 -22z"/>
<path d="M382 4528 c3 -7 13 -15 24 -17 16 -3 17 -1 5 13 -16 19 -34 21 -29 4z"/>
<path d="M450 4464 c0 -17 23 -34 47 -34 13 0 23 5 23 10 0 6 -10 10 -23 10
-13 0 -28 5 -35 12 -7 7 -12 8 -12 2z"/>
<path d="M643 4433 c-21 -8 -15 -30 14 -52 l26 -21 18 30 c10 16 24 30 31 31
19 1 -33 17 -57 17 -11 0 -26 -2 -32 -5z"/>
<path d="M3190 4374 c0 -8 5 -12 10 -9 6 3 10 10 10 16 0 5 -4 9 -10 9 -5 0
-10 -7 -10 -16z"/>
<path d="M3125 4210 c3 -5 15 -10 26 -10 10 0 19 5 19 10 0 6 -12 10 -26 10
-14 0 -23 -4 -19 -10z"/>
<path d="M3260 4150 c6 -11 13 -20 15 -20 3 0 5 9 5 20 0 11 -7 20 -15 20 -13
0 -14 -4 -5 -20z"/>
<path d="M3205 4016 c17 -26 44 -41 54 -30 3 3 -3 12 -14 19 -11 8 -25 19 -32
25 -21 17 -24 11 -8 -14z"/>
<path d="M5627 3764 c-3 -3 -1 -18 4 -33 6 -18 6 -43 0 -69 -8 -39 -8 -42 13
-42 37 0 47 18 31 58 -8 19 -15 42 -15 52 0 19 -23 43 -33 34z"/>
<path d="M5801 3664 c0 -11 3 -14 6 -6 3 7 2 16 -1 19 -3 4 -6 -2 -5 -13z"/>
<path d="M5745 3620 c-3 -5 -1 -10 4 -10 6 0 11 5 11 10 0 6 -2 10 -4 10 -3 0
-8 -4 -11 -10z"/>
<path d="M3068 3423 c6 -2 18 -2 25 0 6 3 1 5 -13 5 -14 0 -19 -2 -12 -5z"/>
<path d="M3840 3399 c0 -15 5 -20 23 -17 27 4 26 19 -2 30 -17 6 -21 3 -21
-13z"/>
<path d="M3030 3280 c0 -5 6 -10 14 -10 8 0 18 5 21 10 3 6 -3 10 -14 10 -12
0 -21 -4 -21 -10z"/>
<path d="M2110 2980 c0 -5 5 -10 11 -10 5 0 7 5 4 10 -3 6 -8 10 -11 10 -2 0
-4 -4 -4 -10z"/>
<path d="M2140 2946 c0 -8 5 -18 10 -21 6 -3 10 3 10 14 0 12 -4 21 -10 21 -5
0 -10 -6 -10 -14z"/>
<path d="M2706 2858 c-21 -32 -35 -148 -17 -148 6 0 11 16 11 35 0 20 7 50 16
66 8 17 14 40 12 52 -3 21 -4 21 -22 -5z"/>
<path d="M2220 2837 c0 -8 7 -21 16 -28 14 -11 15 -10 12 11 -3 26 -28 41 -28
17z"/>
<path d="M2824 2773 c-13 -44 -11 -46 36 -50 25 -1 59 -5 75 -8 27 -4 28 -3
10 7 -11 6 -22 14 -25 17 -8 10 -78 61 -83 61 -3 0 -8 -12 -13 -27z"/>
<path d="M3076 2724 c-37 -25 -38 -28 -20 -41 10 -7 25 -12 32 -11 14 3 46 78
33 78 -3 0 -24 -12 -45 -26z"/>
<path d="M2261 2711 c-12 -21 -1 -34 35 -45 19 -6 21 -3 16 21 -8 44 -34 56
-51 24z"/>
<path d="M3310 2710 c0 -5 5 -10 10 -10 6 0 10 5 10 10 0 6 -4 10 -10 10 -5 0
-10 -4 -10 -10z"/>
<path d="M2995 2701 c-7 -12 12 -24 25 -16 11 7 4 25 -10 25 -5 0 -11 -4 -15
-9z"/>
<path d="M2330 2626 c0 -8 5 -18 10 -21 6 -3 10 1 10 9 0 8 -4 18 -10 21 -5 3
-10 -1 -10 -9z"/>
<path d="M2705 2620 c-9 -15 3 -30 24 -30 25 0 33 11 20 27 -13 15 -35 17 -44
3z"/>
<path d="M3420 2612 c-27 -22 -22 -52 10 -52 25 0 34 19 22 49 -8 22 -8 22
-32 3z"/>
<path d="M3318 2565 c-16 -35 3 -73 39 -80 15 -4 36 -11 47 -16 10 -6 43 -13
72 -16 30 -3 59 -12 65 -19 6 -8 23 -14 38 -14 15 0 31 -4 36 -9 6 -5 48 -11
95 -13 70 -2 85 0 85 12 0 12 -18 15 -95 18 -52 1 -104 6 -115 12 -65 30 -106
44 -150 49 -49 6 -50 7 -53 42 -2 27 -9 39 -28 48 -22 10 -26 8 -36 -14z"/>
<path d="M3014 2568 c-4 -6 1 -17 11 -25 20 -14 35 -3 35 25 0 15 -36 16 -46
0z"/>
<path d="M2470 2510 c0 -5 10 -10 23 -10 18 0 19 2 7 10 -19 13 -30 13 -30 0z"/>
<path d="M3050 2499 c0 -5 -15 -23 -32 -40 -35 -32 -32 -35 18 -17 36 13 47
29 38 53 -7 17 -24 20 -24 4z"/>
<path d="M2550 2481 c0 -8 23 -19 73 -35 32 -10 17 15 -18 30 -39 16 -55 18
-55 5z"/>
<path d="M3885 2448 c-22 -12 -34 -23 -27 -26 7 -2 21 3 31 12 10 9 23 16 29
16 7 0 12 5 12 10 0 12 3 13 -45 -12z"/>
<path d="M2690 2441 l-25 -7 25 -7 c37 -10 86 -9 75 2 -16 14 -48 19 -75 12z"/>
<path d="M2425 2410 c-21 -34 92 -111 208 -141 86 -23 205 -24 275 -4 44 13
52 19 52 40 0 35 -21 41 -152 49 -117 7 -200 21 -292 50 -57 19 -82 20 -91 6z"/>
<path d="M4026 2384 c-8 -20 -8 -58 0 -78 5 -13 9 -14 20 -5 21 17 16 99 -6
99 -4 0 -11 -7 -14 -16z"/>
<path d="M3730 2325 c-36 -7 -93 -13 -127 -14 -51 -1 -64 -5 -77 -23 -22 -31
-5 -55 62 -86 108 -50 245 -24 293 55 20 31 20 35 5 58 -19 29 -48 30 -156 10z"/>
<path d="M2105 2273 c-13 -12 -16 -27 -12 -56 11 -81 127 -163 289 -203 97
-24 114 -26 288 -22 158 4 194 8 250 27 76 26 100 45 100 77 0 40 -27 45 -208
38 -178 -7 -244 1 -387 48 -86 28 -238 89 -249 99 -16 14 -53 10 -71 -8z"/>
<path d="M4012 2248 c-17 -17 -15 -45 4 -52 28 -11 34 -6 28 22 -9 36 -18 44
-32 30z"/>
<path d="M3805 2064 c-61 -17 -136 -18 -205 -3 -101 22 -128 -12 -69 -84 48
-58 100 -80 189 -80 97 0 158 26 195 82 31 45 27 72 -11 89 -30 14 -35 14 -99
-4z"/>
<path d="M1987 2007 c-35 -25 -67 -81 -67 -115 0 -76 109 -174 240 -215 296
-93 521 -98 730 -16 75 30 85 37 88 61 5 40 -27 48 -148 43 -67 -4 -121 -1
-163 9 -34 7 -89 17 -122 21 -83 9 -208 35 -220 45 -6 5 -42 22 -80 38 -81 33
-123 56 -173 95 -55 43 -67 48 -85 34z"/>
<path d="M3462 1800 c-18 -30 -15 -74 9 -104 12 -15 49 -41 83 -58 57 -30 68
-32 166 -33 129 0 173 16 214 78 37 58 42 84 20 109 -17 18 -26 19 -74 13
-133 -16 -277 -17 -315 -1 -51 22 -88 20 -103 -4z"/>
<path d="M1833 1602 c-24 -15 -32 -57 -20 -102 16 -59 110 -160 182 -195 82
-41 196 -57 400 -59 l180 -1 95 34 c126 45 163 65 216 113 80 73 53 105 -64
76 -120 -28 -366 -25 -550 7 -210 37 -229 42 -327 91 -100 48 -95 47 -112 36z"/>
<path d="M3444 1542 c-43 -28 -36 -83 18 -133 86 -80 171 -107 293 -94 54 5
72 13 108 42 23 19 48 48 55 64 11 26 10 31 -8 49 -16 16 -32 20 -73 18 -73
-3 -239 20 -311 43 -70 21 -67 21 -82 11z"/>
<path d="M1802 1228 c-30 -30 -3 -89 65 -139 129 -94 176 -114 343 -143 99
-17 216 -9 340 23 106 27 127 36 197 89 63 47 80 72 67 93 -9 15 -161 6 -282
-17 -64 -12 -121 -15 -212 -11 -119 4 -133 7 -293 61 -175 58 -205 64 -225 44z"/>
<path d="M3419 1219 c-21 -21 -20 -38 7 -91 21 -41 84 -96 131 -114 61 -24
174 -15 231 17 83 47 60 109 -42 109 -62 0 -116 16 -217 64 -42 20 -79 36 -83
36 -3 0 -15 -9 -27 -21z"/>
<path d="M3405 930 c-25 -80 111 -211 237 -227 85 -12 128 32 108 108 -6 22
-16 42 -23 44 -7 1 -46 11 -87 20 -41 10 -101 30 -132 46 -68 34 -94 36 -103
9z"/>
<path d="M1872 878 c-21 -28 -21 -55 2 -104 39 -83 118 -129 241 -140 68 -6
207 15 281 44 49 18 180 98 220 134 23 20 22 53 -1 62 -7 2 -73 -1 -147 -7
-198 -18 -462 -14 -517 6 -52 20 -65 21 -79 5z"/>
<path d="M2732 543 c2 -10 14 -19 28 -21 14 -2 29 -8 35 -13 12 -12 98 -12 91
0 -3 5 -23 11 -43 13 -21 3 -55 13 -76 22 -37 16 -38 16 -35 -1z"/>
</g>
</svg>
